<mxfile host="65bd71144e">
    <diagram id="LgxXwaDNy7TkyIbg4Yiy" name="Page-1">
        <mxGraphModel dx="1386" dy="825" grid="1" gridSize="10" guides="1" tooltips="1" connect="1" arrows="1" fold="1" page="1" pageScale="1" pageWidth="1920" pageHeight="1200" math="0" shadow="0">
            <root>
                <mxCell id="0"/>
                <mxCell id="1" parent="0"/>
                <mxCell id="9" value="main" style="swimlane;" parent="1" vertex="1">
                    <mxGeometry x="910" y="60" width="200" height="100" as="geometry"/>
                </mxCell>
                <mxCell id="54" value="main_menu() : void&lt;br&gt;map() : void&lt;br&gt;level_1() : void&amp;nbsp;&lt;br&gt;level2() : void" style="text;strokeColor=none;fillColor=none;align=left;verticalAlign=top;spacingLeft=4;spacingRight=4;overflow=hidden;rotatable=0;points=[[0,0.5],[1,0.5]];portConstraint=eastwest;whiteSpace=wrap;html=1;" parent="9" vertex="1">
                    <mxGeometry y="30" width="200" height="70" as="geometry"/>
                </mxCell>
                <mxCell id="13" value="Knight" style="swimlane;" parent="1" vertex="1">
                    <mxGeometry x="670" y="370" width="200" height="250" as="geometry"/>
                </mxCell>
                <mxCell id="18" value="animations : dict()&lt;br&gt;action : str&lt;br&gt;max_hp : int&lt;br&gt;curr_hp : int&lt;br&gt;alive : bool&lt;br&gt;image : Surface()&lt;br&gt;rect : Rect()&lt;br&gt;update_time : int&lt;br&gt;curr_frame : int" style="text;strokeColor=none;fillColor=none;align=left;verticalAlign=top;spacingLeft=4;spacingRight=4;overflow=hidden;rotatable=0;points=[[0,0.5],[1,0.5]];portConstraint=eastwest;whiteSpace=wrap;html=1;" parent="13" vertex="1">
                    <mxGeometry y="30" width="200" height="140" as="geometry"/>
                </mxCell>
                <mxCell id="14" value="__init__(x, y, max_hp) : Knight&lt;br&gt;update() : void&lt;br&gt;draw_entity(screen) : void&lt;br&gt;attack(action, target) : void" style="text;strokeColor=none;fillColor=none;align=left;verticalAlign=top;spacingLeft=4;spacingRight=4;overflow=hidden;rotatable=0;points=[[0,0.5],[1,0.5]];portConstraint=eastwest;whiteSpace=wrap;html=1;" parent="13" vertex="1">
                    <mxGeometry y="180" width="200" height="70" as="geometry"/>
                </mxCell>
                <mxCell id="19" value="" style="line;strokeWidth=2;html=1;" parent="13" vertex="1">
                    <mxGeometry y="171" width="200" height="10" as="geometry"/>
                </mxCell>
                <mxCell id="31" value="Demon" style="swimlane;" parent="1" vertex="1">
                    <mxGeometry x="900" y="370" width="200" height="250" as="geometry"/>
                </mxCell>
                <mxCell id="32" value="animations : dict()&lt;br&gt;action : str&lt;br&gt;max_hp : int&lt;br&gt;curr_hp : int&lt;br&gt;alive : bool&lt;br&gt;image : Surface()&lt;br&gt;rect : Rect()&lt;br&gt;update_time : int&lt;br&gt;curr_frame : int" style="text;strokeColor=none;fillColor=none;align=left;verticalAlign=top;spacingLeft=4;spacingRight=4;overflow=hidden;rotatable=0;points=[[0,0.5],[1,0.5]];portConstraint=eastwest;whiteSpace=wrap;html=1;" parent="31" vertex="1">
                    <mxGeometry y="30" width="200" height="140" as="geometry"/>
                </mxCell>
                <mxCell id="33" value="__init__(x, y, max_hp) : Demon&lt;br&gt;update() : void&lt;br&gt;draw_entity(screen) : void&lt;br&gt;attack(action, target) : void" style="text;strokeColor=none;fillColor=none;align=left;verticalAlign=top;spacingLeft=4;spacingRight=4;overflow=hidden;rotatable=0;points=[[0,0.5],[1,0.5]];portConstraint=eastwest;whiteSpace=wrap;html=1;" parent="31" vertex="1">
                    <mxGeometry y="180" width="200" height="70" as="geometry"/>
                </mxCell>
                <mxCell id="34" value="" style="line;strokeWidth=2;html=1;" parent="31" vertex="1">
                    <mxGeometry y="171" width="200" height="10" as="geometry"/>
                </mxCell>
                <mxCell id="35" value="General Entity" style="swimlane;" parent="1" vertex="1">
                    <mxGeometry x="1130" y="370" width="200" height="250" as="geometry"/>
                </mxCell>
                <mxCell id="36" value="animations : dict()&lt;br&gt;action : str&lt;br&gt;max_hp : int&lt;br&gt;curr_hp : int&lt;br&gt;alive : bool&lt;br&gt;image : Surface&lt;br&gt;rect : Rect&lt;br&gt;update_time : int&lt;br&gt;curr_frame : int" style="text;strokeColor=none;fillColor=none;align=left;verticalAlign=top;spacingLeft=4;spacingRight=4;overflow=hidden;rotatable=0;points=[[0,0.5],[1,0.5]];portConstraint=eastwest;whiteSpace=wrap;html=1;" parent="35" vertex="1">
                    <mxGeometry y="30" width="200" height="140" as="geometry"/>
                </mxCell>
                <mxCell id="37" value="__init__(x, y, max_hp) : entity&lt;br&gt;update() : void&lt;br&gt;draw_entity(screen) : void&lt;br&gt;attack(action, target) : void" style="text;strokeColor=none;fillColor=none;align=left;verticalAlign=top;spacingLeft=4;spacingRight=4;overflow=hidden;rotatable=0;points=[[0,0.5],[1,0.5]];portConstraint=eastwest;whiteSpace=wrap;html=1;" parent="35" vertex="1">
                    <mxGeometry y="180" width="200" height="70" as="geometry"/>
                </mxCell>
                <mxCell id="38" value="" style="line;strokeWidth=2;html=1;" parent="35" vertex="1">
                    <mxGeometry y="171" width="200" height="10" as="geometry"/>
                </mxCell>
                <mxCell id="39" value="Support" style="swimlane;" parent="1" vertex="1">
                    <mxGeometry x="810" y="770" width="380" height="120" as="geometry"/>
                </mxCell>
                <mxCell id="40" value="animation_parser(path, frame_count, frame_w, frame_h, scale) : [&amp;nbsp; ]&amp;nbsp;&lt;br&gt;animation_parser_r(path, frame_count, frame_w, frame_h, scale) : [&amp;nbsp; ]&lt;br&gt;get_frame(spritesheet, x frame_w, frame_h, scale) : Surface&lt;br&gt;draw_title(screen, color, text, x, y) : void&lt;br&gt;draw_bg(screen, background) : void" style="text;strokeColor=none;fillColor=none;align=left;verticalAlign=top;spacingLeft=4;spacingRight=4;overflow=hidden;rotatable=0;points=[[0,0.5],[1,0.5]];portConstraint=eastwest;whiteSpace=wrap;html=1;" parent="39" vertex="1">
                    <mxGeometry y="30" width="390" height="100" as="geometry"/>
                </mxCell>
                <mxCell id="43" value="Button" style="swimlane;" parent="1" vertex="1">
                    <mxGeometry x="1350" y="370" width="320" height="170" as="geometry"/>
                </mxCell>
                <mxCell id="44" value="button_image : Surface&amp;nbsp;&lt;br&gt;rect : Rect&lt;br&gt;clicked : bool" style="text;strokeColor=none;fillColor=none;align=left;verticalAlign=top;spacingLeft=4;spacingRight=4;overflow=hidden;rotatable=0;points=[[0,0.5],[1,0.5]];portConstraint=eastwest;whiteSpace=wrap;html=1;" parent="43" vertex="1">
                    <mxGeometry y="30" width="200" height="60" as="geometry"/>
                </mxCell>
                <mxCell id="45" value="__init__(path, x, y, frame_w, frame_h, scale, text) : Button&lt;br&gt;draw_text(surface, surface_w, surface_h, text) : void&lt;br&gt;draw(screen) : bool" style="text;strokeColor=none;fillColor=none;align=left;verticalAlign=top;spacingLeft=4;spacingRight=4;overflow=hidden;rotatable=0;points=[[0,0.5],[1,0.5]];portConstraint=eastwest;whiteSpace=wrap;html=1;" parent="43" vertex="1">
                    <mxGeometry y="100" width="320" height="50" as="geometry"/>
                </mxCell>
                <mxCell id="52" value="" style="line;strokeWidth=2;html=1;" parent="43" vertex="1">
                    <mxGeometry y="90" width="320" height="10" as="geometry"/>
                </mxCell>
                <mxCell id="48" value="Healthbar" style="swimlane;" parent="1" vertex="1">
                    <mxGeometry x="430" y="370" width="220" height="160" as="geometry"/>
                </mxCell>
                <mxCell id="49" value="x : int&lt;br&gt;y : int&lt;br&gt;hp : int&lt;br&gt;max_hp : int" style="text;strokeColor=none;fillColor=none;align=left;verticalAlign=top;spacingLeft=4;spacingRight=4;overflow=hidden;rotatable=0;points=[[0,0.5],[1,0.5]];portConstraint=eastwest;whiteSpace=wrap;html=1;" parent="48" vertex="1">
                    <mxGeometry y="30" width="210" height="70" as="geometry"/>
                </mxCell>
                <mxCell id="51" value="" style="line;strokeWidth=2;html=1;" parent="48" vertex="1">
                    <mxGeometry y="100" width="220" height="10" as="geometry"/>
                </mxCell>
                <mxCell id="50" value="__init__(x, y, hp, max_hp) : Healthbar&lt;br&gt;draw_bar(hp, screen) : void" style="text;strokeColor=none;fillColor=none;align=left;verticalAlign=top;spacingLeft=4;spacingRight=4;overflow=hidden;rotatable=0;points=[[0,0.5],[1,0.5]];portConstraint=eastwest;whiteSpace=wrap;html=1;" parent="48" vertex="1">
                    <mxGeometry y="110" width="220" height="40" as="geometry"/>
                </mxCell>
                <mxCell id="55" value="" style="shape=partialRectangle;whiteSpace=wrap;html=1;bottom=1;right=1;left=1;top=0;fillColor=none;routingCenterX=-0.5;rotation=-180;" parent="1" vertex="1">
                    <mxGeometry x="520" y="310" width="270" height="60" as="geometry"/>
                </mxCell>
                <mxCell id="56" value="" style="shape=partialRectangle;whiteSpace=wrap;html=1;bottom=1;right=1;left=1;top=0;fillColor=none;routingCenterX=-0.5;rotation=-180;" parent="1" vertex="1">
                    <mxGeometry x="790" y="310" width="210" height="60" as="geometry"/>
                </mxCell>
                <mxCell id="57" value="" style="shape=partialRectangle;whiteSpace=wrap;html=1;bottom=1;right=1;left=1;top=0;fillColor=none;routingCenterX=-0.5;rotation=-180;" parent="1" vertex="1">
                    <mxGeometry x="1000" y="310" width="240" height="60" as="geometry"/>
                </mxCell>
                <mxCell id="58" value="" style="shape=partialRectangle;whiteSpace=wrap;html=1;bottom=1;right=1;left=1;top=0;fillColor=none;routingCenterX=-0.5;rotation=-180;" parent="1" vertex="1">
                    <mxGeometry x="1240" y="310" width="270" height="60" as="geometry"/>
                </mxCell>
                <mxCell id="59" value="" style="edgeStyle=segmentEdgeStyle;endArrow=classic;html=1;curved=0;rounded=0;endSize=8;startSize=8;" parent="1" edge="1">
                    <mxGeometry width="50" height="50" relative="1" as="geometry">
                        <mxPoint x="999.8199999999999" y="350" as="sourcePoint"/>
                        <mxPoint x="999.8199999999999" y="160" as="targetPoint"/>
                        <Array as="points">
                            <mxPoint x="999.8199999999999" y="320"/>
                        </Array>
                    </mxGeometry>
                </mxCell>
                <mxCell id="62" value="" style="shape=partialRectangle;whiteSpace=wrap;html=1;bottom=1;right=1;left=1;top=0;fillColor=none;routingCenterX=-0.5;rotation=0;" parent="1" vertex="1">
                    <mxGeometry x="788" y="620" width="210" height="60" as="geometry"/>
                </mxCell>
                <mxCell id="63" value="" style="shape=partialRectangle;whiteSpace=wrap;html=1;bottom=1;right=1;left=1;top=0;fillColor=none;routingCenterX=-0.5;rotation=0;" parent="1" vertex="1">
                    <mxGeometry x="999" y="620" width="240" height="60" as="geometry"/>
                </mxCell>
                <mxCell id="65" value="" style="edgeStyle=segmentEdgeStyle;endArrow=classic;html=1;curved=0;rounded=0;endSize=8;startSize=8;exitX=0.5;exitY=0;exitDx=0;exitDy=0;" parent="1" source="39" edge="1">
                    <mxGeometry width="50" height="50" relative="1" as="geometry">
                        <mxPoint x="997.82" y="730" as="sourcePoint"/>
                        <mxPoint x="997.82" y="680" as="targetPoint"/>
                    </mxGeometry>
                </mxCell>
            </root>
        </mxGraphModel>
    </diagram>
</mxfile>